<svg xmlns="http://www.w3.org/2000/svg" width="1334" height="683" viewBox="0 0 1334 683"><defs><style>.a{opacity:0.6;}.b{fill:none;stroke:#fff;stroke-linecap:round;stroke-linejoin:round;opacity:0.155;}.c{fill:#33353d;}</style></defs><g class="a" transform="translate(-119.763 -109.458)"><path class="b" d="M475.684,172.233,285.624,318.621,402.106,573.655l232.965,148.2,406.446-93.594,229.371-220.8L984.518,190.224,808.406,790.233l-150.27-271L352.43,765.738,122.939,456.063,726.7,172.233l314.818,299.389,248.669,250.236,160.263-314.4-209.9-249.221L706.784,433.9,487.732,393.566,243.082,190.224,122.939,292.051l69.267,376.883L475.684,751.68l31.879-110.353,34.091-169.706,50.887-335.035L808.406,471.622l199.178,294.116,148.2-43.88-31.714-314.4,166.119,149.457,95.139-327.871L1101,158.241l-209.9-45.6-98.089,122.4" transform="translate(0.61 0.565)"/><g transform="translate(119.383 109.405)"><ellipse class="c" cx="5" cy="4.5" rx="5" ry="4.5" transform="translate(669.38 122.053)"/><ellipse class="c" cx="5" cy="4.5" rx="5" ry="4.5" transform="translate(602.38 60.053)"/><circle class="c" cx="4.5" cy="4.5" r="4.5" transform="translate(767.38 0.053)"/><circle class="c" cx="4.5" cy="4.5" r="4.5" transform="translate(861.38 78.053)"/><ellipse class="c" cx="5" cy="4.5" rx="5" ry="4.5" transform="translate(775.38 221.053)"/><ellipse class="c" cx="4.5" cy="4" rx="4.5" ry="4" transform="translate(826.38 196.053)"/><ellipse class="c" cx="4.5" cy="4" rx="4.5" ry="4" transform="translate(809.38 255.053)"/><ellipse class="c" cx="5" cy="4.5" rx="5" ry="4.5" transform="translate(468.38 25.053)"/><circle class="c" cx="4.5" cy="4.5" r="4.5" transform="translate(350.38 60.053)"/><circle class="c" cx="4.5" cy="4.5" r="4.5" transform="translate(221.38 161.053)"/><circle class="c" cx="4.5" cy="4.5" r="4.5" transform="translate(162.38 206.053)"/><ellipse class="c" cx="4" cy="4.5" rx="4" ry="4.5" transform="translate(120.38 78.053)"/><ellipse class="c" cx="4" cy="4.5" rx="4" ry="4.5" transform="translate(0.38 180.053)"/><ellipse class="c" cx="4.5" cy="5" rx="4.5" ry="5" transform="translate(27.38 329.053)"/><ellipse class="c" cx="4" cy="4.5" rx="4" ry="4.5" transform="translate(0.38 342.053)"/><ellipse class="c" cx="4.5" cy="5" rx="4.5" ry="5" transform="translate(40.38 397.053)"/><circle class="c" cx="4.5" cy="4.5" r="4.5" transform="translate(68.38 554.053)"/><ellipse class="c" cx="4.5" cy="5" rx="4.5" ry="5" transform="translate(180.38 589.053)"/><ellipse class="c" cx="4.5" cy="4" rx="4.5" ry="4" transform="translate(229.38 652.053)"/><ellipse class="c" cx="4.5" cy="5" rx="4.5" ry="5" transform="translate(274.38 615.053)"/><circle class="c" cx="4.5" cy="4.5" r="4.5" transform="translate(351.38 639.053)"/><circle class="c" cx="4.5" cy="4.5" r="4.5" transform="translate(279.38 461.053)"/><ellipse class="c" cx="4.5" cy="5" rx="4.5" ry="5" transform="translate(512.38 608.053)"/><ellipse class="c" cx="4" cy="4.5" rx="4" ry="4.5" transform="translate(632.38 581.053)"/><circle class="c" cx="4.5" cy="4.5" r="4.5" transform="translate(685.38 674.053)"/><circle class="c" cx="4.5" cy="4.5" r="4.5" transform="translate(719.38 561.053)"/><circle class="c" cx="4.5" cy="4.5" r="4.5" transform="translate(750.38 454.053)"/><ellipse class="c" cx="4.5" cy="4" rx="4.5" ry="4" transform="translate(808.38 541.053)"/><ellipse class="c" cx="4" cy="4.5" rx="4" ry="4.5" transform="translate(919.38 515.053)"/><ellipse class="c" cx="4.5" cy="4" rx="4.5" ry="4" transform="translate(884.38 652.053)"/><ellipse class="c" cx="4" cy="4.5" rx="4" ry="4.5" transform="translate(1032.38 607.053)"/><circle class="c" cx="4.5" cy="4.5" r="4.5" transform="translate(998.38 439.053)"/><circle class="c" cx="4.5" cy="4.5" r="4.5" transform="translate(1013.38 423.053)"/><circle class="c" cx="4.5" cy="4.5" r="4.5" transform="translate(1017.38 459.053)"/><ellipse class="c" cx="4.5" cy="5" rx="4.5" ry="5" transform="translate(1000.38 296.053)"/><ellipse class="c" cx="4.5" cy="4" rx="4.5" ry="4" transform="translate(1077.38 362.053)"/><circle class="c" cx="4.5" cy="4.5" r="4.5" transform="translate(1165.38 440.053)"/><circle class="c" cx="4.5" cy="4.5" r="4.5" transform="translate(1147.38 294.053)"/><ellipse class="c" cx="4.5" cy="4" rx="4.5" ry="4" transform="translate(939.38 136.053)"/><circle class="c" cx="4.5" cy="4.5" r="4.5" transform="translate(1071.38 68.053)"/><circle class="c" cx="4.5" cy="4.5" r="4.5" transform="translate(1117.38 46.053)"/><circle class="c" cx="4.5" cy="4.5" r="4.5" transform="translate(1155.38 88.053)"/><circle class="c" cx="4.5" cy="4.5" r="4.5" transform="translate(1261.38 115.053)"/><ellipse class="c" cx="5" cy="4.5" rx="5" ry="4.5" transform="translate(1240.38 190.053)"/><ellipse class="c" cx="4" cy="4.5" rx="4" ry="4.5" transform="translate(1326.38 294.053)"/><circle class="c" cx="4.5" cy="4.5" r="4.5" transform="translate(1165.38 606.053)"/><ellipse class="c" cx="4.5" cy="5" rx="4.5" ry="5" transform="translate(280.38 210.053)"/><circle class="c" cx="4.5" cy="4.5" r="4.5" transform="translate(185.38 255.053)"/><ellipse class="c" cx="5" cy="4.5" rx="5" ry="4.5" transform="translate(363.38 279.053)"/><circle class="c" cx="4.5" cy="4.5" r="4.5" transform="translate(453.38 131.053)"/><circle class="c" cx="4.5" cy="4.5" r="4.5" transform="translate(517.38 99.053)"/><circle class="c" cx="4.5" cy="4.5" r="4.5" transform="translate(584.38 320.053)"/><ellipse class="c" cx="4.5" cy="5" rx="4.5" ry="5" transform="translate(640.38 291.053)"/><circle class="c" cx="4.5" cy="4.5" r="4.5" transform="translate(534.38 407.053)"/><circle class="c" cx="4.5" cy="4.5" r="4.5" transform="translate(385.38 527.053)"/><ellipse class="c" cx="4.5" cy="5" rx="4.5" ry="5" transform="translate(428.38 290.053)"/><circle class="c" cx="4.5" cy="4.5" r="4.5" transform="translate(418.38 360.053)"/></g></g></svg>