<svg xmlns="http://www.w3.org/2000/svg" width="22.307" height="22.307" viewBox="0 0 22.307 22.307"><defs><style>.a{fill:#1a75e8;}</style></defs><path class="a" d="M20.713,2.25H1.588A1.6,1.6,0,0,0,0,3.858v19.09a1.6,1.6,0,0,0,1.588,1.608H20.713a1.6,1.6,0,0,0,1.593-1.608V3.858A1.6,1.6,0,0,0,20.713,2.25ZM6.742,21.37H3.436V10.725H6.747V21.37ZM5.089,9.271A1.917,1.917,0,1,1,7.006,7.354,1.918,1.918,0,0,1,5.089,9.271Zm14.046,12.1H15.829V16.192c0-1.235-.025-2.823-1.718-2.823-1.723,0-1.987,1.344-1.987,2.734V21.37H8.818V10.725H11.99v1.454h.045a3.482,3.482,0,0,1,3.132-1.718c3.346,0,3.968,2.206,3.968,5.074Z" transform="translate(0 -2.25)"/></svg>