<svg xmlns="http://www.w3.org/2000/svg" width="25.493" height="20.705" viewBox="0 0 25.493 20.705"><defs><style>.a{fill:#1a75e8;}</style></defs><path class="a" d="M22.873,8.541c.016.226.016.453.016.679A14.764,14.764,0,0,1,8.023,24.086,14.765,14.765,0,0,1,0,21.74a10.809,10.809,0,0,0,1.262.065,10.464,10.464,0,0,0,6.487-2.232,5.234,5.234,0,0,1-4.885-3.623,6.589,6.589,0,0,0,.987.081,5.526,5.526,0,0,0,1.375-.178,5.226,5.226,0,0,1-4.19-5.128V10.66a5.262,5.262,0,0,0,2.362.663A5.233,5.233,0,0,1,1.779,4.335,14.851,14.851,0,0,0,12.552,9.8a5.9,5.9,0,0,1-.129-1.2,5.23,5.23,0,0,1,9.042-3.575,10.287,10.287,0,0,0,3.316-1.262,5.211,5.211,0,0,1-2.3,2.879,10.474,10.474,0,0,0,3.009-.809,11.231,11.231,0,0,1-2.62,2.7Z" transform="translate(0 -3.381)"/></svg>